<svg height="512pt" viewBox="-6 0 512 512" width="512pt" xmlns="http://www.w3.org/2000/svg"><path d="m72.652344 430.316406c-4.179688.460938-8.332032-1.113281-11.09375-4.28125-38.332032-43.988281-61.558594-101.484375-61.558594-164.414062 0-138.144532 111.878906-250.160156 249.976562-250.378906 137.429688-.21875 249.96875 111.445312 250.777344 248.875.375 63.5-22.90625 121.554687-61.53125 165.890624-2.769531 3.179688-6.929687 4.773438-11.121094 4.308594-56.460937-6.261718-116.082031-9.613281-177.722656-9.613281-61.640625.003906-121.265625 3.351563-177.726562 9.613281zm0 0" fill="#fdbf43"/><path d="m373.015625 107.304688v148.183593c0 11.289063-9.152344 20.441407-20.441406 20.441407-11.289063 0-20.4375-9.152344-20.4375-20.441407v-148.183593c0-36.628907-29.800781-66.425782-66.429688-66.425782h-30.65625c-36.628906 0-66.429687 29.796875-66.429687 66.425782v148.183593c0 11.289063-9.148438 20.441407-20.4375 20.441407-11.289063 0-20.4375-9.152344-20.4375-20.441407v-148.183593c0-59.167969 48.136718-107.304688 107.304687-107.304688h30.65625c59.167969 0 107.308594 48.136719 107.308594 107.304688zm0 0" fill="#d2fcff"/><path d="m160.445312 271.8125c-3.417968 2.574219-7.652343 4.117188-12.261718 4.117188-11.289063 0-20.4375-9.152344-20.4375-20.441407v-148.183593c0-59.167969 48.136718-107.304688 107.304687-107.304688h24.527344c-59.167969 0-107.308594 48.136719-107.308594 107.304688v148.183593c0 6.679688 3.222657 12.59375 8.175781 16.324219zm196.21875-16.324219v-148.183593c0-36.628907-29.800781-66.425782-66.429687-66.425782h-24.527344c36.628907 0 66.429688 29.796875 66.429688 66.425782v148.183593c0 11.289063 9.148437 20.441407 20.4375 20.441407 4.609375 0 8.84375-1.542969 12.265625-4.117188-4.957032-3.730469-8.175782-9.644531-8.175782-16.324219zm0 0" fill="#aef7ff"/><path d="m61.316406 425.769531v-239.773437c0-11.289063 9.152344-20.4375 20.441406-20.4375h337.246094c11.285156 0 20.4375 9.148437 20.4375 20.4375v239.773437c-45.90625 52.828125-113.582031 86.230469-189.0625 86.230469-75.480468 0-143.15625-33.402344-189.0625-86.230469zm0 0" fill="#0573cd"/><path d="m101.171875 462.695312v-276.699218c0-11.289063 9.152344-20.4375 20.441406-20.4375h297.390625c11.285156 0 20.4375 9.148437 20.4375 20.4375v239.773437c-45.90625 52.828125-113.582031 86.230469-189.0625 86.230469-55.910156 0-107.535156-18.332031-149.207031-49.304688zm0 0" fill="#528ed7"/><path d="m378.125 357.683594c0 16.933594-13.726562 30.660156-30.660156 30.660156h-194.171875c-16.933594 0-30.660157-13.726562-30.660157-30.660156 0-16.929688 13.726563-30.65625 30.660157-30.65625h194.171875c16.933594 0 30.660156 13.726562 30.660156 30.65625zm-30.660156-132.851563h-194.171875c-16.933594 0-30.660157 13.726563-30.660157 30.65625 0 16.933594 13.726563 30.660157 30.660157 30.660157h194.171875c16.933594 0 30.660156-13.726563 30.660156-30.660157 0-16.929687-13.726562-30.65625-30.660156-30.65625zm0 0" fill="#2fcbe0"/><path d="m223.808594 357.683594c0 8.46875-6.863282 15.332031-15.328125 15.332031-8.46875 0-15.332031-6.863281-15.332031-15.332031 0-8.464844 6.863281-15.328125 15.332031-15.328125 8.464843 0 15.328125 6.863281 15.328125 15.328125zm-66.425782-117.523438c-8.46875 0-15.332031 6.863282-15.332031 15.328125 0 8.464844 6.863281 15.332031 15.332031 15.332031 8.464844 0 15.328126-6.867187 15.328126-15.332031 0-8.464843-6.863282-15.328125-15.328126-15.328125zm0 102.195313c-8.46875 0-15.332031 6.863281-15.332031 15.328125 0 8.46875 6.863281 15.332031 15.332031 15.332031 8.464844 0 15.328126-6.863281 15.328126-15.332031 0-8.464844-6.863282-15.328125-15.328126-15.328125zm153.292969 0c-8.46875 0-15.332031 6.863281-15.332031 15.328125 0 8.46875 6.863281 15.332031 15.332031 15.332031 8.464844 0 15.328125-6.863281 15.328125-15.332031 0-8.464844-6.863281-15.328125-15.328125-15.328125zm-51.097656-102.195313c-8.46875 0-15.332031 6.863282-15.332031 15.328125 0 8.464844 6.863281 15.332031 15.332031 15.332031 8.464844 0 15.328125-6.867187 15.328125-15.332031 0-8.464843-6.863281-15.328125-15.328125-15.328125zm0 102.195313c-8.46875 0-15.332031 6.863281-15.332031 15.328125 0 8.46875 6.863281 15.332031 15.332031 15.332031 8.464844 0 15.328125-6.863281 15.328125-15.332031 0-8.464844-6.863281-15.328125-15.328125-15.328125zm-51.097656-102.195313c-8.46875 0-15.332031 6.863282-15.332031 15.328125 0 8.464844 6.863281 15.332031 15.332031 15.332031 8.464843 0 15.328125-6.867187 15.328125-15.332031 0-8.464843-6.863282-15.328125-15.328125-15.328125zm0 0" fill="#d2fcff"/><path d="m287.167969 470.101562h-73.578125c-11.289063 0-20.441406-9.152343-20.441406-20.441406 0-11.289062 9.152343-20.4375 20.441406-20.4375h73.578125c11.289062 0 20.441406 9.148438 20.441406 20.4375 0 11.289063-9.152344 20.441406-20.441406 20.441406zm0 0" fill="#0ed1b2"/><path d="m286.148438 449.660156c0 4.234375-3.433594 7.664063-7.664063 7.664063h-56.207031c-4.234375 0-7.667969-3.429688-7.667969-7.664063 0-4.230468 3.433594-7.664062 7.667969-7.664062h56.207031c4.230469 0 7.664063 3.433594 7.664063 7.664062zm0 0" fill="#0198b0"/></svg>