<?xml version="1.0" encoding="iso-8859-1"?>
<!-- Generator: Adobe Illustrator 19.0.0, SVG Export Plug-In . SVG Version: 6.00 Build 0)  -->
<svg xmlns="http://www.w3.org/2000/svg" xmlns:xlink="http://www.w3.org/1999/xlink" version="1.1" id="Layer_1" x="0px" y="0px" viewBox="0 0 512 512" style="enable-background:new 0 0 512 512;" xml:space="preserve" width="512" height="512">
<g>
	<circle style="fill:#537983;" cx="256" cy="256" r="256"/>
	<path style="fill:#3E5959;" d="M511.113,234.718l-98.303-98.303l-9.669,9.669l-49.308-49.308l-44.5,10.557l-9,47.333   l-165.424,4.263l-25.32,25.32l29.469,29.469l-9.802,9.802l58.646,58.646l-98.604,98.604l128.372,128.372   C230.174,511.02,242.972,512,256,512c141.385,0,256-114.615,256-256C512,248.832,511.69,241.737,511.113,234.718z"/>
	<g>
		<path style="fill:#FFCEBF;" d="M424.723,342.234c-0.197,0-101.813,76.917-103.779,78.49H215.987l-86.744-39.965l-19.655-19.655    v-78.62l19.655-19.655h39.31c21.425,0,42.717,6.29,60.406,18.082l28.697,19.262l2.949,1.966h26.534    c21.62,0,39.31,17.689,39.31,39.31H218.345v19.655h115.769l44.027-33.02c12.972-9.239,31.251-6.29,40.686,6.29L424.723,342.234z"/>
		<path style="fill:#FFB99C;" d="M326.448,341.448h-68.793v-41.276l2.949,1.966h26.534    C308.758,302.138,326.448,319.826,326.448,341.448z"/>
		<path style="fill:#FFB99C;" d="M424.723,342.234c-0.197,0-101.813,76.917-103.779,78.49h-63.289v-59.62h76.458l44.027-33.02    c12.972-9.239,31.251-6.29,40.686,6.29L424.723,342.234z"/>
		<rect x="208.518" y="174.38" style="fill:#FF9100;" width="19.655" height="49.138"/>
		<rect x="89.277" y="262.828" style="fill:#25D9F8;" width="39.965" height="117.93"/>
		<path style="fill:#FDBF00;" d="M385.413,125.242c-7.469,0-14.348,2.162-20.245,5.7c0.197-1.768,0.59-3.735,0.59-5.7    c0-21.621-17.69-39.965-39.31-39.965s-39.31,18.344-39.31,39.965c0,7.272,2.162,13.759,5.504,19.655H109.587v39.31h19.655v39.31    h39.31v-39.31h124.089c-3.342,5.896-5.504,12.383-5.504,19.655c0,21.62,17.69,39.31,39.31,39.31s39.31-17.69,39.31-39.31    c0-1.966-0.393-3.931-0.59-5.701c5.897,3.539,12.776,5.701,20.245,5.701c21.62,0,39.31-17.69,39.31-39.31    C424.723,142.931,407.033,125.242,385.413,125.242z M316.62,115.415h19.655v19.655H316.62V115.415z M336.275,213.69H316.62    v-19.655h19.655V213.69z M395.241,174.38h-19.655v-19.655h19.655V174.38z"/>
		<path style="fill:#FF9100;" d="M395.241,164.552v9.828h-19.655v-9.828H109.587v19.655h19.655v39.31h39.31v-39.31h124.089    c-3.342,5.896-5.504,12.383-5.504,19.655c0,21.62,17.69,39.31,39.31,39.31s39.31-17.69,39.31-39.31    c0-1.966-0.393-3.931-0.59-5.701c5.897,3.539,12.776,5.701,20.245,5.701c21.62,0,39.31-17.69,39.31-39.31H395.241z     M336.275,213.69H316.62v-19.655h19.655V213.69z"/>
	</g>
</g>















</svg>
