<?xml version="1.0" encoding="utf-8"?>
<!-- Generator: Adobe Illustrator 16.0.0, SVG Export Plug-In . SVG Version: 6.00 Build 0)  -->
<!DOCTYPE svg PUBLIC "-//W3C//DTD SVG 1.1//EN" "http://www.w3.org/Graphics/SVG/1.1/DTD/svg11.dtd">
<svg version="1.1" id="Layer_1" xmlns="http://www.w3.org/2000/svg" xmlns:xlink="http://www.w3.org/1999/xlink" x="0px" y="0px"
	 width="512px" height="312px" viewBox="0 0 512 312" enable-background="new 0 0 512 312" xml:space="preserve">
<path fill="#E6E6E6" d="M295.39,113.969c-1.394,0-2.76,0.114-4.093,0.326c-3.928-6.107-10.354-10.454-17.841-11.584
	C271.921,89.918,261.039,80,247.832,80c-8.924,0-16.789,4.527-21.426,11.411c-4.578-4.136-10.645-6.655-17.3-6.655
	c-8.252,0-15.593,3.876-20.319,9.901c-18.09,2.606-31.993,18.165-31.993,36.977c0,20.637,16.729,37.366,37.366,37.366
	c10.519,0,20.016-4.353,26.807-11.348c4.159,2.87,9.2,4.554,14.637,4.554c8.922,0,16.786-4.526,21.423-11.407
	c3.715,2.07,7.991,3.254,12.546,3.254c1.394,0,2.76-0.113,4.093-0.325c4.592,7.142,12.603,11.876,21.725,11.876
	c14.258,0,25.816-11.559,25.816-25.817S309.647,113.969,295.39,113.969z"/>
<path fill="#E6E6E6" d="M420.667,95.333c-0.684,0-1.354,0.056-2.008,0.16c-1.928-2.997-5.081-5.13-8.754-5.684
	c-0.753-6.276-6.092-11.144-12.572-11.144c-4.378,0-8.237,2.223-10.512,5.6c-2.246-2.029-5.223-3.266-8.488-3.266
	c-4.049,0-7.65,1.902-9.97,4.857c-8.875,1.279-15.697,8.912-15.697,18.143c0,10.125,8.209,18.334,18.334,18.334
	c5.16,0,9.82-2.137,13.152-5.568c2.04,1.408,4.514,2.234,7.182,2.234c4.377,0,8.235-2.221,10.511-5.597
	C403.667,114.42,405.766,115,408,115c0.684,0,1.354-0.056,2.008-0.16c2.253,3.504,6.184,5.827,10.659,5.827
	c6.995,0,12.667-5.671,12.667-12.667S427.662,95.333,420.667,95.333z"/>
<g>
	<path fill="#609E05" d="M110.873,54.289c0,0-14.655-7.527-20.909,14.881C89.964,69.17,113.313,69.97,110.873,54.289z"/>
	<path fill="#4F8101" d="M110.88,54.36c-0.002-0.024-0.002-0.047-0.007-0.071c0,0-14.636-7.52-20.9,14.845
		C95.169,64.863,107.138,56.846,110.88,54.36z"/>
	<path fill="#88AB35" d="M113.563,54.436c0,0,0.034-0.082,0.077-0.214c0.199-0.595,0.642-2.202-0.51-1.874
		c-1.409,0.397-23.3,17.111-23.3,17.111"/>
</g>
<g>
	<path fill="#609E05" d="M58.873,253.289c0,0-14.655-7.527-20.909,14.881C37.964,268.17,61.313,268.97,58.873,253.289z"/>
	<path fill="#4F8101" d="M58.88,253.36c-0.002-0.024-0.002-0.047-0.007-0.071c0,0-14.636-7.52-20.9,14.845
		C43.169,263.863,55.138,255.846,58.88,253.36z"/>
	<path fill="#88AB35" d="M61.563,253.436c0,0,0.034-0.082,0.077-0.214c0.199-0.595,0.642-2.202-0.51-1.874
		c-1.409,0.397-23.3,17.111-23.3,17.111"/>
</g>
<g>
	<path fill="#609E05" d="M456.306,245.461c0,0-12.079-6.205-17.233,12.265C439.072,257.726,458.316,258.385,456.306,245.461z"/>
	<path fill="#4F8101" d="M456.311,245.52c-0.001-0.021-0.001-0.039-0.005-0.059c0,0-12.063-6.197-17.227,12.234
		C443.362,254.176,453.227,247.567,456.311,245.52z"/>
	<path fill="#88AB35" d="M458.523,245.581c0,0,0.027-0.067,0.063-0.177c0.164-0.49,0.528-1.814-0.421-1.544
		c-1.161,0.327-19.203,14.103-19.203,14.103"/>
</g>
<g>
	<path fill="#609E05" d="M483.306,78.461c0,0-12.079-6.205-17.233,12.265C466.072,90.726,485.316,91.385,483.306,78.461z"/>
	<path fill="#4F8101" d="M483.311,78.52c-0.001-0.021-0.001-0.039-0.005-0.059c0,0-12.063-6.197-17.227,12.234
		C470.362,87.176,480.227,80.567,483.311,78.52z"/>
	<path fill="#88AB35" d="M485.523,78.581c0,0,0.027-0.067,0.063-0.177c0.164-0.49,0.528-1.814-0.421-1.544
		c-1.161,0.327-19.203,14.103-19.203,14.103"/>
</g>
<g>
	<path fill="#609E05" d="M197.944,121.225c0,0-8.198-4.21-11.695,8.324C186.249,129.549,199.309,129.996,197.944,121.225z"/>
	<path fill="#4F8101" d="M197.947,121.266c-0.001-0.014-0.001-0.027-0.003-0.041c0,0-8.188-4.205-11.691,8.304
		C189.16,127.141,195.854,122.655,197.947,121.266z"/>
	<path fill="#88AB35" d="M199.449,121.307c0,0,0.019-0.045,0.043-0.119c0.111-0.332,0.358-1.232-0.285-1.049
		c-0.788,0.223-13.032,9.572-13.032,9.572"/>
</g>
<g>
	<path fill="#609E05" d="M290.553,101.445c0,0,0.857,6.837,10.071,3.711C300.624,105.156,295.393,96.904,290.553,101.445z"/>
	<path fill="#4F8101" d="M290.576,101.426c-0.009,0.007-0.017,0.012-0.023,0.02c0,0,0.855,6.828,10.057,3.717
		C297.909,104.375,292.316,102.132,290.576,101.426z"/>
	<path fill="#88AB35" d="M289.969,100.48c0,0-0.036,0.008-0.093,0.024c-0.252,0.071-0.911,0.298-0.526,0.618
		c0.47,0.393,11.405,4.012,11.405,4.012"/>
</g>
<g>
	<path fill="#609E05" d="M354.553,127.445c0,0,0.857,6.837,10.071,3.711C364.624,131.156,359.393,122.904,354.553,127.445z"/>
	<path fill="#4F8101" d="M354.576,127.426c-0.009,0.007-0.017,0.012-0.023,0.02c0,0,0.855,6.828,10.057,3.717
		C361.909,130.375,356.316,128.132,354.576,127.426z"/>
	<path fill="#88AB35" d="M353.969,126.48c0,0-0.036,0.008-0.093,0.024c-0.252,0.071-0.911,0.298-0.526,0.618
		c0.47,0.393,11.405,4.012,11.405,4.012"/>
</g>
<g>
</g>
<g>
	<text transform="matrix(1 0 0 1 216 175.8936)"><tspan x="0" y="0" font-family="'SaiEmbed'" font-size="45">No Items in </tspan><tspan x="0" y="35" font-family="'SaiEmbed'" font-size="45">your wishlist </tspan></text>
</g>
<g>
	<linearGradient id="SVGID_1_" gradientUnits="userSpaceOnUse" x1="59.5479" y1="162.7754" x2="220.9663" y2="162.7754">
		<stop  offset="0" style="stop-color:#FF6A70"/>
		<stop  offset="0.507" style="stop-color:#E86C77"/>
		<stop  offset="0.9944" style="stop-color:#CE6E7F"/>
	</linearGradient>
	<path fill-rule="evenodd" clip-rule="evenodd" fill="url(#SVGID_1_)" d="M179.644,92.772c1.992-2.372,3.732-4.896,5.913-6.95
		c5.174-4.871,11.214-5.942,17.867-3.353c11.908,4.637,18.977,17.363,17.297,30.815c-0.986,7.898-3.929,14.747-9.816,20.226
		c-8.108,7.544-16.161,15.149-24.335,22.622c-1.455,1.332-2.063,2.611-2.059,4.593c0.068,25.757,0.047,51.514,0.045,77.271
		c0,5.18-1.337,6.507-6.601,6.508c-37.311,0.005-74.619,0.006-111.929-0.001c-5.083-0.001-6.469-1.37-6.471-6.341
		c-0.005-47.063-0.008-94.125-0.008-141.188c0-5.993,1.065-7.03,7.164-7.029c25.188,0.002,50.378-0.013,75.565,0.05
		c2.034,0.006,3.419-0.675,5.006-1.947c2.696-2.164,5.643-4.214,8.803-5.561c6.678-2.846,12.851-1.405,18.021,3.617
		C176.187,88.127,177.847,90.58,179.644,92.772z M68.812,99.028c0,45.498,0,90.7,0,135.99c35.591,0,71.014,0,106.513,0
		c0.058-0.556,0.13-0.921,0.13-1.284c0.008-24.417,0.032-48.835-0.06-73.252c-0.006-1.085-0.843-2.417-1.688-3.212
		c-8.273-7.775-16.627-15.463-24.965-23.17c-7.938-7.341-10.955-16.556-10.219-27.138c0.181-2.597,0.758-5.166,1.181-7.935
		C116.049,99.028,92.533,99.028,68.812,99.028z M179.469,150.908c9.197-8.813,17.914-16.799,26.141-25.263
		c2.5-2.57,4.309-6.271,5.289-9.773c2.903-10.368-1.339-20.425-9.745-24.507c-4.492-2.182-7.902-1.828-10.713,2.307
		c-2.609,3.841-4.48,8.245-6.237,12.579c-0.964,2.38-2.082,4.101-4.714,4.063c-2.639-0.038-3.746-1.853-4.654-4.205
		c-1.519-3.934-3.078-7.957-5.35-11.472c-3.32-5.137-7.367-5.727-12.706-2.668c-10.027,5.745-13.207,22.478-5.013,31.68
		C160.219,133.14,169.872,141.563,179.469,150.908z"/>
</g>
<linearGradient id="SVGID_2_" gradientUnits="userSpaceOnUse" x1="-238.27" y1="21.6709" x2="-220.2371" y2="46.9079" gradientTransform="matrix(0.5925 0.1025 -0.1184 0.6844 344.4954 55.8999)">
	<stop  offset="0" style="stop-color:#FF6A70"/>
	<stop  offset="0.507" style="stop-color:#E86C77"/>
	<stop  offset="0.9944" style="stop-color:#CE6E7F"/>
</linearGradient>
<polygon fill-rule="evenodd" clip-rule="evenodd" fill="url(#SVGID_2_)" points="204.447,67.715 200.771,67.079 204.758,44.023 
	208.436,44.659 "/>
<linearGradient id="SVGID_3_" gradientUnits="userSpaceOnUse" x1="-333.5522" y1="569.0879" x2="-319.5688" y2="572.7036" gradientTransform="matrix(0.4107 0.3951 -0.4782 0.4971 633.343 -86.5176)">
	<stop  offset="0" style="stop-color:#FF6A70"/>
	<stop  offset="0.507" style="stop-color:#E86C77"/>
	<stop  offset="0.9944" style="stop-color:#CE6E7F"/>
</linearGradient>
<polygon fill-rule="evenodd" clip-rule="evenodd" fill="url(#SVGID_3_)" points="219.443,77.849 216.895,75.397 233.005,58.649 
	235.551,61.103 "/>
<linearGradient id="SVGID_4_" gradientUnits="userSpaceOnUse" x1="-464.8838" y1="317.6836" x2="-445.0555" y2="330.8451" gradientTransform="matrix(0.4567 0.2514 -0.3414 0.6204 535.0664 -26.2798)">
	<stop  offset="0" style="stop-color:#FF6A70"/>
	<stop  offset="0.507" style="stop-color:#E86C77"/>
	<stop  offset="0.9944" style="stop-color:#CE6E7F"/>
</linearGradient>
<polygon fill-rule="evenodd" clip-rule="evenodd" fill="url(#SVGID_4_)" points="212.242,71.744 209.41,70.185 220.91,49.285 
	223.745,50.846 "/>
<g>
	<linearGradient id="SVGID_5_" gradientUnits="userSpaceOnUse" x1="100.4258" y1="164.5029" x2="142.293" y2="164.5029">
		<stop  offset="0" style="stop-color:#FF6A70"/>
		<stop  offset="0.507" style="stop-color:#E86C77"/>
		<stop  offset="0.9944" style="stop-color:#CE6E7F"/>
	</linearGradient>
	<path fill="url(#SVGID_5_)" d="M136.796,146.063c3.664,4.902,5.497,11.056,5.497,18.458c0,7.378-1.833,13.519-5.497,18.421
		c-3.933,5.268-9.078,7.9-15.437,7.9c-6.359,0-11.505-2.633-15.437-7.9c-3.665-4.902-5.497-11.043-5.497-18.421
		c0-7.402,1.832-13.556,5.497-18.458c3.932-5.267,9.077-7.9,15.437-7.9C127.718,138.163,132.863,140.797,136.796,146.063z
		 M121.359,145.08c-3.641,0-6.662,1.614-9.065,4.842c-2.767,3.714-4.15,8.58-4.15,14.6c0,5.995,1.384,10.861,4.15,14.599
		c2.403,3.204,5.425,4.806,9.065,4.806s6.662-1.602,9.065-4.806c2.79-3.737,4.187-8.604,4.187-14.599
		c0-6.02-1.396-10.886-4.187-14.6C128.021,146.694,125,145.08,121.359,145.08z"/>
</g>
<linearGradient id="SVGID_6_" gradientUnits="userSpaceOnUse" x1="88" y1="206.5" x2="160" y2="206.5">
	<stop  offset="0" style="stop-color:#FF6A70"/>
	<stop  offset="0.507" style="stop-color:#E86C77"/>
	<stop  offset="0.9944" style="stop-color:#CE6E7F"/>
</linearGradient>
<rect x="88" y="203" fill="url(#SVGID_6_)" width="72" height="7"/>
<linearGradient id="SVGID_7_" gradientUnits="userSpaceOnUse" x1="88" y1="221.5" x2="151" y2="221.5">
	<stop  offset="0" style="stop-color:#FF6A70"/>
	<stop  offset="0.507" style="stop-color:#E86C77"/>
	<stop  offset="0.9944" style="stop-color:#CE6E7F"/>
</linearGradient>
<rect x="88" y="218" fill="url(#SVGID_7_)" width="63" height="7"/>
</svg>
