<svg height="480pt" viewBox="0 0 480 480" width="480pt" xmlns="http://www.w3.org/2000/svg"><path d="m472 120c0 61.855469-50.144531 112-112 112s-112-50.144531-112-112 50.144531-112 112-112 112 50.144531 112 112zm0 0" fill="#44ffe8"/><path d="m88 144h32v40h-32zm0 0" fill="#ff9811"/><path d="m296 312c8.824219.027344 15.972656 7.175781 16 16v16c-.027344 8.824219-7.175781 15.972656-16 16 8.824219.027344 15.972656 7.175781 16 16v16c-.027344 8.824219-7.175781 15.972656-16 16h-8c8.824219.027344 15.972656 7.175781 16 16v16c-.027344 8.824219-7.175781 15.972656-16 16h-152l-48-16v-176h32l32-32 8-32c.027344-8.824219 7.175781-15.972656 16-16h16c8.824219.027344 15.972656 7.175781 16 16v64h96c8.824219.027344 15.972656 7.175781 16 16v16c-.027344 8.824219-7.175781 15.972656-16 16zm0 0" fill="#ffdaaa"/><path d="m88 440v32h-80v-224h80zm0 0" fill="#c0ab91"/><path d="m120 157.199219c-10.339844 3.734375-21.660156 3.734375-32 0-22.039062-7.792969-35.261719-30.328125-31.308594-53.371094 3.953125-23.039063 23.929688-39.882813 47.308594-39.882813s43.355469 16.84375 47.308594 39.882813c3.953125 23.042969-9.269532 45.578125-31.308594 53.371094zm0 0" fill="#ffda44"/><path d="m420 76c6.609375 6.632812 6.609375 17.367188 0 24l-64.71875 64.71875c-2.992188 2.996094-7.050781 4.679688-11.28125 4.679688s-8.289062-1.683594-11.28125-4.679688l-32.71875-32.71875c-6.628906-6.628906-6.628906-17.371094 0-24s17.371094-6.628906 24 0l20 20 52-52c3.179688-3.1875 7.496094-4.980469 12-4.980469s8.820312 1.792969 12 4.980469zm0 0" fill="#d80027"/><g fill="#2d2d30"><path d="m304 256h-88v-56c0-13.253906-10.746094-24-24-24h-16c-12.84375-.011719-23.421875 10.089844-24 22.921875l-7.199219 28.988281-28.113281 28.089844h-20.6875v-8c0-4.417969-3.582031-8-8-8h-80c-4.417969 0-8 3.582031-8 8v224c0 4.417969 3.582031 8 8 8h80c4.417969 0 8-3.582031 8-8v-20.894531l37.472656 12.488281c.816406.269531 1.667969.40625 2.527344.40625h152c13.253906 0 24-10.746094 24-24v-16c-.023438-4.132812-1.125-8.191406-3.199219-11.769531 6.957031-4.375 11.183594-12.011719 11.199219-20.230469v-16c-.019531-5.921875-2.246094-11.625-6.238281-16 3.992187-4.375 6.21875-10.078125 6.238281-16v-16c-.023438-4.132812-1.125-8.191406-3.199219-11.769531 6.957031-4.375 11.183594-12.011719 11.199219-20.230469v-16c0-13.253906-10.746094-24-24-24zm-224 208h-64v-208h64zm216-24c0 4.417969-3.582031 8-8 8h-150.703125l-41.296875-13.769531v-162.230469h24c2.121094 0 4.15625-.84375 5.65625-2.34375l32-32c1.023438-1.023438 1.75-2.308594 2.105469-3.710938l8-32c.15625-.636718.238281-1.289062.238281-1.945312 0-4.417969 3.582031-8 8-8h16c4.417969 0 8 3.582031 8 8v56h-16v16h120c4.417969 0 8 3.582031 8 8v16c0 4.417969-3.582031 8-8 8h-40v16h32c4.417969 0 8 3.582031 8 8v16c0 4.417969-3.582031 8-8 8h-24v16h24c4.417969 0 8 3.582031 8 8v16c0 4.417969-3.582031 8-8 8h-24v16h16c4.417969 0 8 3.582031 8 8zm0 0"/><path d="m360 0c-66.273438 0-120 53.726562-120 120s53.726562 120 120 120 120-53.726562 120-120c-.074219-66.242188-53.757812-119.9257812-120-120zm0 224c-57.4375 0-104-46.5625-104-104s46.5625-104 104-104 104 46.5625 104 104c-.066406 57.410156-46.589844 103.933594-104 104zm0 0"/><path d="m390.34375 70.34375-46.34375 46.34375-14.34375-14.34375c-9.75-9.75-25.5625-9.75-35.3125 0s-9.75 25.5625 0 35.3125l32.6875 32.6875c9.371094 9.371094 24.566406 9.371094 33.9375 0l64.6875-64.6875c9.75-9.75 9.75-25.5625 0-35.3125s-25.5625-9.75-35.3125 0zm24 24-64.6875 64.6875c-3.125 3.125-8.1875 3.125-11.3125 0l-32.6875-32.6875c-3.503906-3.503906-3.503906-9.183594 0-12.6875s9.183594-3.503906 12.6875 0l20 20c3.125 3.121094 8.1875 3.121094 11.3125 0l52-52c3.503906-3.503906 9.183594-3.503906 12.6875 0s3.503906 9.183594 0 12.6875zm0 0"/><path d="m96 32h16v16h-16zm0 0"/><path d="m57.074219 46.722656 13.855469-8 8 13.855469-13.855469 8zm0 0"/><path d="m30.722656 78.925781 8-13.855469 13.855469 8-8 13.855469zm0 0"/><path d="m24 104h16v16h-16zm0 0"/><path d="m30.722656 145.070312 13.855469-8 8 13.859376-13.855469 7.996093zm0 0"/><path d="m155.421875 150.925781 8-13.855469 13.855469 8-8 13.855469zm0 0"/><path d="m168 104h16v16h-16zm0 0"/><path d="m155.425781 73.066406 13.859375-8 7.996094 13.859375-13.855469 8zm0 0"/><path d="m129.074219 52.578125 8-13.859375 13.859375 8-8 13.859375zm0 0"/><path d="m88 192h32c4.417969 0 8-3.582031 8-8v-21.480469c23.660156-11.222656 36.382812-37.347656 30.632812-62.894531-5.753906-25.550781-28.445312-43.703125-54.632812-43.703125s-48.878906 18.152344-54.632812 43.703125c-5.75 25.546875 6.972656 51.671875 30.632812 62.894531v21.480469c0 4.417969 3.582031 8 8 8zm24-16h-16v-8.640625c5.300781.855469 10.699219.855469 16 0zm-48-64c-.097656-18.835938 12.960938-35.1875 31.351562-39.261719 18.390626-4.074219 37.128907 5.238281 44.996094 22.351563 7.863282 17.117187 2.722656 37.398437-12.347656 48.703125v-23.792969h-16v31.199219c-5.277344 1.078125-10.722656 1.078125-16 0v-31.199219h-16v23.792969c-10.035156-7.492188-15.964844-19.269531-16-31.792969zm0 0"/></g></svg>