<?xml version="1.0"?>
<svg xmlns="http://www.w3.org/2000/svg" id="Layer_1" data-name="Layer 1" viewBox="0 0 512 512" width="512" height="512"><title>Bill Payment </title><path d="M461.46,399v32a40,40,0,0,1-40,40h-160a40,40,0,0,1-40-40V399Zm-105,36a15,15,0,1,0-15,15A15.005,15.005,0,0,0,356.46,435Z" style="fill:#e48e66"/><path d="M461.46,101V399h-240V324.35h17.35a30.524,30.524,0,0,0,59.78-8.7V200.32h51.95V165a25.976,25.976,0,0,0-25.97-25.98H227.16a41.129,41.129,0,0,0-5.7.39V101h240Z" style="fill:#f8ec7d"/><path d="M461.46,81v20h-240V81a40,40,0,0,1,40-40h160A40,40,0,0,1,461.46,81Z" style="fill:#e48e66"/><circle cx="341.46" cy="435" r="15" style="fill:#f8ec7d"/><path d="M350.54,165v35.32H298.59V165a25.975,25.975,0,1,1,51.95,0Z" style="fill:#cc7350"/><path d="M221.46,139.41a41.129,41.129,0,0,1,5.7-.39h97.41A25.982,25.982,0,0,0,298.59,165V315.65a30.52,30.52,0,1,1-61.04,0V297.33a25.967,25.967,0,0,0-25.97-25.97H185.61V180.58A41.563,41.563,0,0,1,221.46,139.41Z" style="fill:#6fe3ff"/><path d="M238.81,324.35h-53.2V297.33a25.97,25.97,0,0,1,51.94,0v18.32A30.5,30.5,0,0,0,238.81,324.35Z" style="fill:#cc7350"/><path d="M185.61,271.36h25.97a25.965,25.965,0,0,0-25.97,25.97v86.43a15.59,15.59,0,0,1-15.59,15.59c-.27,0-.54-.01-.8-.02a15.587,15.587,0,0,1-14.78-15.57V372.68l-83.12.14v-59.9a41.564,41.564,0,0,1,41.56-41.56Z" style="fill:#6fe3ff"/><path d="M71.32,372.82l83.12-.14v11.08a15.587,15.587,0,0,0,14.78,15.57v.02H71.32a20.782,20.782,0,0,1-20.78-20.78v-5.72Z" style="fill:#cc7350"/><path d="M213.27,185h56.36a6,6,0,0,0,0-12H213.27a6,6,0,1,0,0,12Z" style="fill:#2561a1"/><path d="M269.63,200H213.27a6,6,0,1,0,0,12h56.36a6,6,0,0,0,0-12Z" style="fill:#2561a1"/><path d="M242.36,227H213.27a6,6,0,1,0,0,12h29.09a6,6,0,0,0,0-12Z" style="fill:#2561a1"/><path d="M124,308.045A6.039,6.039,0,0,0,118,302H92.58a6.034,6.034,0,0,0-1.395,11.9A6,6,0,0,0,89.4,324.828a5.986,5.986,0,0,0-.945,9.442l18.18,17.18a6,6,0,1,0,8.242-8.721l-8.566-8.094a16.626,16.626,0,0,0,5.5-3.548A15.492,15.492,0,0,0,115.352,326H118a6.115,6.115,0,0,0,1.4-12.04A6.1,6.1,0,0,0,124,308.045Z" style="fill:#2561a1"/><path d="M169,308.045A6.039,6.039,0,0,0,163,302H137.58a6.034,6.034,0,0,0-1.4,11.9,6,6,0,0,0-1.781,10.931,5.986,5.986,0,0,0-.945,9.442l18.18,17.18a6,6,0,1,0,8.242-8.721l-8.566-8.094a16.626,16.626,0,0,0,5.5-3.548A15.492,15.492,0,0,0,160.352,326H163a6.115,6.115,0,0,0,1.4-12.04A6.1,6.1,0,0,0,169,308.045Z" style="fill:#2561a1"/></svg>
