<svg height="512pt" viewBox="0 0 512 512" width="512pt" xmlns="http://www.w3.org/2000/svg"><path d="m512 256c0 141.386719-114.613281 256-256 256s-256-114.613281-256-256 114.613281-256 256-256 256 114.613281 256 256zm0 0" fill="#ffe955"/><path d="m512 256c0 26.050781-3.890625 51.191406-11.128906 74.871094-32.011719 104.847656-129.542969 181.128906-244.871094 181.128906-104.558594 0-194.488281-62.699219-234.230469-152.550781-14-31.628907-21.769531-66.628907-21.769531-103.449219 0-46.21875 12.25-89.570312 33.679688-127 44.121093 77.070312 127.160156 129 222.320312 129s178.210938-51.929688 222.320312-129c21.429688 37.429688 33.679688 80.78125 33.679688 127zm0 0" fill="#ffd112"/><path d="m30.742188 377.703125c7.15625 13.21875 15.429687 25.738281 24.71875 37.425781 46.898437 59.019532 119.300781 96.871094 200.539062 96.871094s153.640625-37.851562 200.539062-96.871094c9.289063-11.6875 17.5625-24.207031 24.71875-37.425781zm0 0" fill="#ff9f00"/><path d="m439.371094 278.453125v-14.117187c0-3.738282-.925782-7.425782-2.695313-10.722657l-8.113281-15.128906-25.769531-48.054687-.039063-.074219-25.792968 48.097656-8.132813 15.160156c-1.769531 3.296875-2.695313 6.984375-2.695313 10.722657v14.117187zm0 0" fill="#ffc0a4"/><path d="m439.371094 278.453125v-14.117187c0-3.738282-.925782-7.425782-2.695313-10.722657l-33.882812-63.183593c-.015625.050781-.023438.105468-.039063.15625-6.8125 26.414062-12.183594 47.683593-12.183594 49.050781v38.816406zm0 0" fill="#ffa87a"/><path d="m439.371094 278.453125v-14.117187c0-3.738282-.925782-7.425782-2.695313-10.722657l-8.113281-15.128906-25.769531-48.054687-.039063-.074219v88.09375h36.617188zm0 0" fill="#e3835a"/><path d="m402.753906 190.582031v-.226562l-25.792968 48.097656c4.171874 2.558594 8.742187 4.511719 13.609374 5.742187v-4.558593c0-1.371094 5.371094-22.636719 12.183594-49.054688zm0 0" fill="#474f6f"/><path d="m402.753906 245.710938v-55.128907c-6.816406 26.417969-12.183594 47.683594-12.183594 49.050781v4.558594c3.894532.992188 7.980469 1.519532 12.183594 1.519532zm0 0" fill="#323b5a"/><path d="m428.5625 238.484375-25.769531-48.054687-.039063-.074219v55.355469h.03125c9.441406 0 18.269532-2.640626 25.777344-7.226563zm0 0" fill="#262626"/><path d="m439.371094 268.539062v166.101563c-7.640625 7.828125-15.78125 15.1875-24.359375 22-3.992188 3.167969-8.082031 6.21875-12.261719 9.140625-3.980469 2.789062-8.039062 5.46875-12.179688 8.027344v.140625h-.21875c-6.960937 4.300781-14.140624 8.28125-21.523437 11.902343-.898437.449219-1.789063.878907-2.699219 1.296876v-218.789063c1.839844 4.980469 6.621094 8.519531 12.222656 8.519531 5.609376 0 10.386719-3.539062 12.21875-8.519531 1.828126 4.96875 6.589844 8.5 12.179688 8.519531h.039062c5.609376 0 10.382813-3.539062 12.222657-8.519531 1.828125 4.980469 6.609375 8.519531 12.207031 8.519531 5.542969 0 10.28125-3.457031 12.152344-8.339844zm0 0" fill="#65b2ff"/><path d="m439.371094 268.539062v166.101563c-7.640625 7.828125-15.78125 15.1875-24.359375 22-3.992188 3.167969-8.082031 6.21875-12.261719 9.140625v-188.902344h.039062c5.609376 0 10.382813-3.539062 12.222657-8.519531 1.828125 4.980469 6.609375 8.519531 12.207031 8.519531 5.542969 0 10.28125-3.457031 12.152344-8.339844zm0 0" fill="#0f9be8"/><path d="m415.011719 268.359375v188.28125c-3.992188 3.167969-8.082031 6.21875-12.261719 9.140625-3.980469 2.789062-8.039062 5.46875-12.179688 8.027344v-205.449219c1.828126 4.96875 6.589844 8.5 12.179688 8.519531h.039062c5.609376 0 10.382813-3.539062 12.222657-8.519531zm0 0" fill="#474f6f"/><path d="m415.011719 268.359375v188.28125c-3.992188 3.167969-8.082031 6.21875-12.261719 9.140625v-188.902344h.039062c5.609376 0 10.382813-3.539062 12.222657-8.519531zm0 0" fill="#323b5a"/><path d="m366.128906 485.851562h2.699219c-.898437.449219-1.789063.878907-2.699219 1.296876zm0 0" fill="#474f6f"/><path d="m366.128906 473.949219h24.222656c-6.960937 4.300781-14.140624 8.28125-21.523437 11.902343-.898437.449219-1.789063.878907-2.699219 1.296876zm0 0" fill="#fff"/><path d="m332.53125 174.929688v280.710937l-55.511719 55.5c-.890625.078125-1.769531.148437-2.660156.199219-6.058594.441406-12.1875.660156-18.359375.660156-18.320312 0-36.191406-1.921875-53.421875-5.589844-50.386719-10.691406-95.296875-36.210937-129.949219-71.769531v-259.710937zm0 0" fill="#fff"/><path d="m332.53125 174.929688v280.710937l-55.511719 55.5c-.890625.078125-1.769531.148437-2.660156.199219-6.058594.441406-12.1875.660156-18.359375.660156-18.320312 0-36.191406-1.921875-53.421875-5.589844v-331.480468zm0 0" fill="#e4ebf8"/><path d="m332.53125 455.640625-55.511719 55.5c-.890625.078125-1.769531.148437-2.660156.199219l.25-55.699219zm0 0" fill="#c7d9ff"/><g fill="#474f6f"><path d="m111.566406 222.867188h182.023438v25.722656h-182.023438zm0 0"/><path d="m111.566406 286.164062h182.023438v25.722657h-182.023438zm0 0"/><path d="m111.566406 349.464844h182.023438v25.71875h-182.023438zm0 0"/><path d="m148.679688 421.238281c2.46875-.75 4.039062-2.769531 4.039062-5.128906 0-3.660156-3.730469-6.058594-9.507812-6.058594h-12.152344v23.988281h12.730468c5.851563 0 9.652344-2.628906 9.652344-6.738281 0-3.011719-1.882812-5.410156-4.761718-6.0625zm-9.71875-5.367187h3.800781c1.097656 0 1.816406.648437 1.816406 1.679687 0 1.058594-.71875 1.738281-1.816406 1.738281h-3.800781zm3.800781 12.347656h-3.800781v-3.660156h3.800781c1.46875 0 2.429687.691406 2.429687 1.75 0 1.160156-.960937 1.910156-2.429687 1.910156zm0 0"/><path d="m167.808594 409.808594c-7.628906 0-13.167969 5.101562-13.167969 12.222656 0 7.148438 5.539063 12.347656 13.167969 12.347656 7.632812 0 13.179687-5.230468 13.179687-12.347656 0-7.082031-5.546875-12.222656-13.179687-12.222656zm.113281 17.972656c-2.742187 0-5.140625-2.429688-5.140625-5.722656 0-3.277344 2.359375-5.636719 5.140625-5.636719 2.726563 0 4.917969 2.359375 4.917969 5.636719 0 3.292968-2.191406 5.722656-4.917969 5.722656zm0 0"/><path d="m202.578125 411.730469c-2.066406-1.21875-4.589844-1.921875-7.386719-1.921875-7.632812 0-13.179687 5.101562-13.179687 12.222656 0 7.148438 5.546875 12.347656 13.179687 12.347656 2.796875 0 5.320313-.707031 7.386719-1.949218 3.570313-2.148438 5.792969-5.898438 5.792969-10.398438 0-4.480469-2.222656-8.179688-5.792969-10.300781zm-7.289063 16.050781c-2.738281 0-5.128906-2.429688-5.128906-5.722656 0-3.277344 2.359375-5.636719 5.128906-5.636719 2.742188 0 4.929688 2.359375 4.929688 5.636719 0 3.292968-2.1875 5.722656-4.929688 5.722656zm0 0"/><path d="m226.261719 419.699219 8.558593-9.648438h-9.140624l-7.148438 8.320313v-8.320313h-7.941406v23.988281h7.941406v-5.640624l2.320312-2.609376 5 8.25h9.476563zm0 0"/><path d="m244.980469 428.019531v-2.980469h11.230469v-6.019531h-11.230469v-2.949219h12.359375v-6.019531h-20.300782v23.988281h20.601563v-6.019531zm0 0"/><path d="m271.371094 410.050781h-10.722656v23.988281h10.410156c8.113281 0 13.351562-4.71875 13.351562-12.007812 0-7.292969-5.140625-11.980469-13.039062-11.980469zm.199218 17.828125h-2.980468v-11.667968h2.609375c3.082031 0 5.089843 2.328124 5.089843 5.890624 0 3.519532-1.839843 5.777344-4.71875 5.777344zm0 0"/></g></svg>