<?xml version="1.0" encoding="utf-8"?>
<!-- Generator: Adobe Illustrator 16.0.0, SVG Export Plug-In . SVG Version: 6.00 Build 0)  -->
<!DOCTYPE svg PUBLIC "-//W3C//DTD SVG 1.1//EN" "http://www.w3.org/Graphics/SVG/1.1/DTD/svg11.dtd">
<svg version="1.1" id="Layer_1" xmlns="http://www.w3.org/2000/svg" xmlns:xlink="http://www.w3.org/1999/xlink" x="0px" y="0px"
	 width="512px" height="312px" viewBox="0 0 512 312" enable-background="new 0 0 512 312" xml:space="preserve">
<path fill="#E6E6E6" d="M357.89,98.969c-1.394,0-2.76,0.114-4.093,0.326c-3.928-6.107-10.354-10.454-17.841-11.584
	C334.421,74.918,323.539,65,310.332,65c-8.924,0-16.789,4.527-21.426,11.411c-4.578-4.136-10.645-6.655-17.3-6.655
	c-8.252,0-15.593,3.876-20.319,9.901c-18.09,2.606-31.993,18.165-31.993,36.977c0,20.637,16.729,37.366,37.366,37.366
	c10.519,0,20.016-4.353,26.807-11.348c4.159,2.87,9.2,4.554,14.637,4.554c8.922,0,16.786-4.526,21.423-11.407
	c3.715,2.07,7.991,3.254,12.546,3.254c1.394,0,2.76-0.113,4.093-0.325c4.592,7.142,12.603,11.876,21.725,11.876
	c14.258,0,25.816-11.559,25.816-25.817S372.147,98.969,357.89,98.969z"/>
<text transform="matrix(1 0 0 1 222.6465 191.4131)" font-family="'SaiEmbed'" font-size="40">Cart is empty </text>
<g>
	<path fill="#1D1D1D" d="M159.816,135.166c-0.913,0.034-1.681-0.68-1.717-1.593l-1.579-41.698
		c-0.528-13.934-12.274-24.839-26.185-24.313c-13.91,0.527-24.797,12.293-24.27,26.226l1.579,41.697
		c0.035,0.915-0.678,1.684-1.59,1.718c-0.913,0.035-1.681-0.679-1.714-1.593l-1.581-41.696
		c-0.597-15.761,11.716-29.066,27.45-29.662c15.733-0.597,29.019,11.74,29.616,27.499l1.58,41.697
		C161.44,134.361,160.729,135.132,159.816,135.166z"/>
</g>
<polygon fill="#89724D" points="64.448,119.638 192.259,114.796 190.113,248.066 58.916,251.227 "/>
<linearGradient id="SVGID_1_" gradientUnits="userSpaceOnUse" x1="70.3457" y1="143.9023" x2="228.6127" y2="242.7985">
	<stop  offset="0" style="stop-color:#FFD670"/>
	<stop  offset="0.2609" style="stop-color:#F4BF73"/>
	<stop  offset="0.806" style="stop-color:#D8847C"/>
	<stop  offset="0.9944" style="stop-color:#CE6E7F"/>
</linearGradient>
<polygon fill="url(#SVGID_1_)" points="221.517,254.155 86.508,263.188 82.619,124.263 205.945,119.446 "/>
<linearGradient id="SVGID_2_" gradientUnits="userSpaceOnUse" x1="58.916" y1="191.4131" x2="86.5083" y2="191.4131">
	<stop  offset="0" style="stop-color:#FFD670"/>
	<stop  offset="0.2609" style="stop-color:#F4BF73"/>
	<stop  offset="0.806" style="stop-color:#D8847C"/>
	<stop  offset="0.9944" style="stop-color:#CE6E7F"/>
</linearGradient>
<polygon fill="url(#SVGID_2_)" points="86.508,263.188 58.916,251.227 64.448,119.638 74.744,121.357 82.619,124.263 "/>
<linearGradient id="SVGID_3_" gradientUnits="userSpaceOnUse" x1="74.7441" y1="192.2715" x2="86.6079" y2="192.2715">
	<stop  offset="0" style="stop-color:#FFD670"/>
	<stop  offset="0.6673" style="stop-color:#DD8D7B"/>
	<stop  offset="0.9944" style="stop-color:#CE6E7F"/>
</linearGradient>
<polygon fill="url(#SVGID_3_)" points="74.744,121.357 75.099,241.917 86.608,263.186 82.682,124.022 "/>
<g>
	
		<ellipse transform="matrix(0.9993 -0.0378 0.0378 0.9993 -5.2206 4.4294)" fill="#343434" cx="114.586" cy="140.346" rx="3.309" ry="3.314"/>
	<g>
		<circle fill="#C7BCA4" cx="114.585" cy="140.346" r="1.891"/>
	</g>
</g>
<g>
	<path fill="#1D1D1D" d="M168.413,139.662c-0.913,0.034-1.682-0.679-1.716-1.593l-1.58-41.696
		c-0.529-13.934-12.274-24.84-26.185-24.313c-13.911,0.527-24.797,12.293-24.271,26.224l1.581,41.697
		c0.035,0.916-0.677,1.684-1.591,1.719c-0.912,0.035-1.681-0.678-1.715-1.592l-1.58-41.697
		c-0.597-15.759,11.717-29.065,27.45-29.661c15.733-0.596,29.019,11.74,29.615,27.499l1.581,41.696
		C170.037,138.858,169.325,139.629,168.413,139.662z"/>
</g>
<path fill="#E6E6E6" d="M451.167,91.333c-0.684,0-1.354,0.056-2.008,0.16c-1.928-2.997-5.081-5.13-8.754-5.684
	c-0.753-6.276-6.092-11.144-12.572-11.144c-4.378,0-8.237,2.223-10.512,5.6c-2.246-2.029-5.223-3.266-8.488-3.266
	c-4.049,0-7.65,1.902-9.97,4.857c-8.875,1.279-15.697,8.912-15.697,18.143c0,10.125,8.209,18.334,18.334,18.334
	c5.16,0,9.82-2.137,13.152-5.568c2.04,1.408,4.514,2.234,7.182,2.234c4.377,0,8.235-2.221,10.511-5.597
	c1.822,1.017,3.921,1.597,6.155,1.597c0.684,0,1.354-0.056,2.008-0.16c2.253,3.504,6.184,5.827,10.659,5.827
	c6.995,0,12.667-5.671,12.667-12.667S458.162,91.333,451.167,91.333z"/>
<g>
	<path fill="#609E05" d="M141.373,50.289c0,0-14.655-7.527-20.909,14.881C120.464,65.17,143.813,65.97,141.373,50.289z"/>
	<path fill="#4F8101" d="M141.38,50.36c-0.002-0.024-0.002-0.047-0.007-0.071c0,0-14.636-7.52-20.9,14.845
		C125.669,60.863,137.638,52.846,141.38,50.36z"/>
	<path fill="#88AB35" d="M144.063,50.436c0,0,0.034-0.082,0.077-0.214c0.199-0.595,0.642-2.202-0.51-1.874
		c-1.409,0.397-23.3,17.111-23.3,17.111"/>
</g>
<g>
	<path fill="#609E05" d="M85.373,215.289c0,0-14.655-7.527-20.909,14.881C64.464,230.17,87.813,230.97,85.373,215.289z"/>
	<path fill="#4F8101" d="M85.38,215.36c-0.002-0.024-0.002-0.047-0.007-0.071c0,0-14.636-7.52-20.9,14.845
		C69.669,225.863,81.638,217.846,85.38,215.36z"/>
	<path fill="#88AB35" d="M88.063,215.436c0,0,0.034-0.082,0.077-0.214c0.199-0.595,0.642-2.202-0.51-1.874
		c-1.409,0.397-23.3,17.111-23.3,17.111"/>
</g>
<g>
	<path fill="#609E05" d="M459.806,115.461c0,0-12.079-6.205-17.233,12.265C442.572,127.726,461.816,128.385,459.806,115.461z"/>
	<path fill="#4F8101" d="M459.811,115.52c-0.001-0.021-0.001-0.039-0.005-0.059c0,0-12.063-6.197-17.227,12.234
		C446.862,124.176,456.727,117.567,459.811,115.52z"/>
	<path fill="#88AB35" d="M462.023,115.581c0,0,0.027-0.067,0.063-0.177c0.164-0.49,0.528-1.814-0.421-1.544
		c-1.161,0.327-19.203,14.103-19.203,14.103"/>
</g>
<g>
	<path fill="#609E05" d="M397.806,225.461c0,0-12.079-6.205-17.233,12.265C380.572,237.726,399.816,238.385,397.806,225.461z"/>
	<path fill="#4F8101" d="M397.811,225.52c-0.001-0.021-0.001-0.039-0.005-0.059c0,0-12.063-6.197-17.227,12.234
		C384.862,234.176,394.727,227.567,397.811,225.52z"/>
	<path fill="#88AB35" d="M400.023,225.581c0,0,0.027-0.067,0.063-0.177c0.164-0.49,0.528-1.814-0.421-1.544
		c-1.161,0.327-19.203,14.103-19.203,14.103"/>
</g>
<g>
	<path fill="#609E05" d="M228.444,117.225c0,0-8.198-4.21-11.695,8.324C216.749,125.549,229.809,125.996,228.444,117.225z"/>
	<path fill="#4F8101" d="M228.447,117.266c-0.001-0.014-0.001-0.027-0.003-0.041c0,0-8.188-4.205-11.691,8.304
		C219.66,123.141,226.354,118.655,228.447,117.266z"/>
	<path fill="#88AB35" d="M229.949,117.307c0,0,0.019-0.045,0.043-0.119c0.111-0.332,0.358-1.232-0.285-1.049
		c-0.788,0.223-13.032,9.572-13.032,9.572"/>
</g>
<g>
	<path fill="#609E05" d="M321.053,97.445c0,0,0.857,6.837,10.071,3.711C331.124,101.156,325.893,92.904,321.053,97.445z"/>
	<path fill="#4F8101" d="M321.076,97.426c-0.009,0.007-0.017,0.012-0.023,0.02c0,0,0.855,6.828,10.057,3.717
		C328.409,100.375,322.816,98.132,321.076,97.426z"/>
	<path fill="#88AB35" d="M320.469,96.48c0,0-0.036,0.008-0.093,0.024c-0.252,0.071-0.911,0.298-0.526,0.618
		c0.47,0.393,11.405,4.012,11.405,4.012"/>
</g>
<g>
	<path fill="#609E05" d="M359.053,122.445c0,0,0.857,6.837,10.071,3.711C369.124,126.156,363.893,117.904,359.053,122.445z"/>
	<path fill="#4F8101" d="M359.076,122.426c-0.009,0.007-0.017,0.012-0.023,0.02c0,0,0.855,6.828,10.057,3.717
		C366.409,125.375,360.816,123.132,359.076,122.426z"/>
	<path fill="#88AB35" d="M358.469,121.48c0,0-0.036,0.008-0.093,0.024c-0.252,0.071-0.911,0.298-0.526,0.618
		c0.47,0.393,11.405,4.012,11.405,4.012"/>
</g>
<circle cx="170.5" cy="179.012" r="8.306"/>
<circle cx="130.5" cy="182.012" r="8.306"/>
<path fill="none" stroke="#000000" stroke-width="3" stroke-miterlimit="10" d="M141.563,216.838c0,0,16.014-17.534,31.27-0.297"/>
</svg>
