<?xml version="1.0" encoding="utf-8"?>
<!-- Generator: Adobe Illustrator 16.0.0, SVG Export Plug-In . SVG Version: 6.00 Build 0)  -->
<!DOCTYPE svg PUBLIC "-//W3C//DTD SVG 1.1//EN" "http://www.w3.org/Graphics/SVG/1.1/DTD/svg11.dtd">
<svg version="1.1" id="Layer_1" xmlns="http://www.w3.org/2000/svg" xmlns:xlink="http://www.w3.org/1999/xlink" x="0px" y="0px"
	 width="512px" height="312px" viewBox="0 0 512 312" enable-background="new 0 0 512 312" xml:space="preserve">
<path fill="#E6E6E6" d="M296.39,115.969c-1.394,0-2.76,0.114-4.093,0.326c-3.928-6.107-10.354-10.454-17.841-11.584
	C272.921,91.918,262.039,82,248.832,82c-8.924,0-16.789,4.527-21.426,11.411c-4.578-4.136-10.645-6.655-17.3-6.655
	c-8.252,0-15.593,3.876-20.319,9.901c-18.09,2.606-31.993,18.165-31.993,36.977c0,20.637,16.729,37.366,37.366,37.366
	c10.519,0,20.016-4.353,26.807-11.348c4.159,2.87,9.2,4.554,14.637,4.554c8.922,0,16.786-4.526,21.423-11.407
	c3.715,2.07,7.991,3.254,12.546,3.254c1.394,0,2.76-0.113,4.093-0.325c4.592,7.142,12.603,11.876,21.725,11.876
	c14.258,0,25.816-11.559,25.816-25.817S310.647,115.969,296.39,115.969z"/>
<path fill="#E6E6E6" d="M421.667,97.333c-0.684,0-1.354,0.056-2.008,0.16c-1.928-2.997-5.081-5.13-8.754-5.684
	c-0.753-6.276-6.092-11.144-12.572-11.144c-4.378,0-8.237,2.223-10.512,5.6c-2.246-2.029-5.223-3.266-8.488-3.266
	c-4.049,0-7.65,1.902-9.97,4.857c-8.875,1.279-15.697,8.912-15.697,18.143c0,10.125,8.209,18.334,18.334,18.334
	c5.16,0,9.82-2.137,13.152-5.568c2.04,1.408,4.514,2.234,7.182,2.234c4.377,0,8.235-2.221,10.511-5.597
	C404.667,116.42,406.766,117,409,117c0.684,0,1.354-0.056,2.008-0.16c2.253,3.504,6.184,5.827,10.659,5.827
	c6.995,0,12.667-5.671,12.667-12.667S428.662,97.333,421.667,97.333z"/>
<g>
	
		<linearGradient id="SVGID_1_" gradientUnits="userSpaceOnUse" x1="-36.9204" y1="269.3691" x2="153.8013" y2="269.3691" gradientTransform="matrix(0.9839 0.1787 -0.1787 0.9839 106.4907 -109.5586)">
		<stop  offset="0" style="stop-color:#FFD670"/>
		<stop  offset="0.2609" style="stop-color:#F4BF73"/>
		<stop  offset="0.806" style="stop-color:#D8847C"/>
		<stop  offset="0.9944" style="stop-color:#CE6E7F"/>
	</linearGradient>
	<polygon fill-rule="evenodd" clip-rule="evenodd" fill="url(#SVGID_1_)" points="198.022,247.138 55.172,264.233 33.686,84.693 
		176.535,67.598 	"/>
	
		<rect x="51.097" y="84.526" transform="matrix(0.9929 -0.1188 0.1188 0.9929 -18.8942 14.9419)" fill-rule="evenodd" clip-rule="evenodd" fill="#FFFFFF" width="129.514" height="162.778"/>
	
		<linearGradient id="SVGID_2_" gradientUnits="userSpaceOnUse" x1="-293.2598" y1="16.7559" x2="-275.2268" y2="41.9928" gradientTransform="matrix(0.5925 0.1025 -0.1184 0.6844 344.4954 55.8999)">
		<stop  offset="0" style="stop-color:#FFD670"/>
		<stop  offset="0.2609" style="stop-color:#F4BF73"/>
		<stop  offset="0.806" style="stop-color:#D8847C"/>
		<stop  offset="0.9944" style="stop-color:#CE6E7F"/>
	</linearGradient>
	<polygon fill-rule="evenodd" clip-rule="evenodd" fill="url(#SVGID_2_)" points="172.447,58.715 168.771,58.079 172.758,35.023 
		176.436,35.659 	"/>
	
		<linearGradient id="SVGID_3_" gradientUnits="userSpaceOnUse" x1="-384.9658" y1="591.8467" x2="-370.9823" y2="595.4623" gradientTransform="matrix(0.4107 0.3951 -0.4782 0.4971 633.343 -86.5176)">
		<stop  offset="0" style="stop-color:#FFD670"/>
		<stop  offset="0.2609" style="stop-color:#F4BF73"/>
		<stop  offset="0.806" style="stop-color:#D8847C"/>
		<stop  offset="0.9944" style="stop-color:#CE6E7F"/>
	</linearGradient>
	<polygon fill-rule="evenodd" clip-rule="evenodd" fill="url(#SVGID_3_)" points="187.443,68.849 184.895,66.397 201.005,49.649 
		203.551,52.103 	"/>
	
		<linearGradient id="SVGID_4_" gradientUnits="userSpaceOnUse" x1="-526.9849" y1="328.3418" x2="-507.1582" y2="341.5022" gradientTransform="matrix(0.4567 0.2514 -0.3414 0.6204 535.0664 -26.2798)">
		<stop  offset="0" style="stop-color:#FFD670"/>
		<stop  offset="0.2609" style="stop-color:#F4BF73"/>
		<stop  offset="0.806" style="stop-color:#D8847C"/>
		<stop  offset="0.9944" style="stop-color:#CE6E7F"/>
	</linearGradient>
	<polygon fill-rule="evenodd" clip-rule="evenodd" fill="url(#SVGID_4_)" points="180.242,62.744 177.41,61.185 188.91,40.285 
		191.745,41.846 	"/>
	<path fill="#E6E6E6" d="M141.719,153.046c-0.623,0.08-1.227,0.211-1.809,0.384c-2.107-2.493-5.229-4.055-8.633-4.122
		c-1.432-5.615-6.866-9.402-12.756-8.63c-3.98,0.521-7.223,3-8.891,6.341c-2.281-1.576-5.136-2.345-8.104-1.956
		c-3.679,0.482-6.727,2.64-8.481,5.604c-7.917,2.222-13.207,9.973-12.106,18.361c1.207,9.204,9.646,15.687,18.851,14.48
		c4.691-0.616,8.672-3.111,11.291-6.628c2.023,1.037,4.367,1.491,6.794,1.174c3.98-0.522,7.221-3.001,8.888-6.34
		c1.777,0.707,3.755,0.984,5.784,0.718c0.623-0.082,1.226-0.212,1.809-0.386c2.465,2.917,6.314,4.559,10.381,4.027
		c6.358-0.835,10.838-6.666,10.006-13.022C153.908,156.691,148.076,152.212,141.719,153.046z"/>
	<g>
		<linearGradient id="SVGID_5_" gradientUnits="userSpaceOnUse" x1="138.5352" y1="160.9727" x2="173.915" y2="170.4527">
			<stop  offset="0" style="stop-color:#FFD670"/>
			<stop  offset="0.2609" style="stop-color:#F4BF73"/>
			<stop  offset="0.806" style="stop-color:#D8847C"/>
			<stop  offset="0.9944" style="stop-color:#CE6E7F"/>
		</linearGradient>
		<path fill="url(#SVGID_5_)" d="M167.135,137.433l-3.655,39.646c-0.169,2.053-0.855,3.646-2.052,4.779
			c-1.197,1.132-2.695,1.7-4.491,1.7s-3.294-0.568-4.491-1.7c-1.196-1.133-1.883-2.727-2.052-4.779l-3.721-39.646
			c-0.17-2.012-0.257-3.335-0.257-3.978c0-3.336,1.003-6.021,3.016-8.05c2.01-2.031,4.512-3.048,7.505-3.048
			c2.951,0,5.443,1.027,7.473,3.079c2.032,2.053,3.048,4.643,3.048,7.762C167.457,133.841,167.351,135.252,167.135,137.433z
			 M165.02,202.738c0,1.884-0.706,3.475-2.118,4.778c-1.411,1.306-3.357,1.957-5.837,1.957c-2.479,0-4.427-0.651-5.837-1.957
			c-1.412-1.304-2.118-2.895-2.118-4.778c0-1.837,0.696-3.41,2.085-4.715s3.346-1.957,5.87-1.957s4.481,0.642,5.87,1.925
			S165.02,200.854,165.02,202.738z"/>
	</g>
</g>
<g>
	<path fill="#609E05" d="M111.873,56.289c0,0-14.655-7.527-20.909,14.881C90.964,71.17,114.313,71.97,111.873,56.289z"/>
	<path fill="#4F8101" d="M111.88,56.36c-0.002-0.024-0.002-0.047-0.007-0.071c0,0-14.636-7.52-20.9,14.845
		C96.169,66.863,108.138,58.846,111.88,56.36z"/>
	<path fill="#88AB35" d="M114.563,56.436c0,0,0.034-0.082,0.077-0.214c0.199-0.595,0.642-2.202-0.51-1.874
		c-1.409,0.397-23.3,17.111-23.3,17.111"/>
</g>
<g>
	<path fill="#609E05" d="M59.873,255.289c0,0-14.655-7.527-20.909,14.881C38.964,270.17,62.313,270.97,59.873,255.289z"/>
	<path fill="#4F8101" d="M59.88,255.36c-0.002-0.024-0.002-0.047-0.007-0.071c0,0-14.636-7.52-20.9,14.845
		C44.169,265.863,56.138,257.846,59.88,255.36z"/>
	<path fill="#88AB35" d="M62.563,255.436c0,0,0.034-0.082,0.077-0.214c0.199-0.595,0.642-2.202-0.51-1.874
		c-1.409,0.397-23.3,17.111-23.3,17.111"/>
</g>
<g>
	<path fill="#609E05" d="M457.306,247.461c0,0-12.079-6.205-17.233,12.265C440.072,259.726,459.316,260.385,457.306,247.461z"/>
	<path fill="#4F8101" d="M457.311,247.52c-0.001-0.021-0.001-0.039-0.005-0.059c0,0-12.063-6.197-17.227,12.234
		C444.362,256.176,454.227,249.567,457.311,247.52z"/>
	<path fill="#88AB35" d="M459.523,247.581c0,0,0.027-0.067,0.063-0.177c0.164-0.49,0.528-1.814-0.421-1.544
		c-1.161,0.327-19.203,14.103-19.203,14.103"/>
</g>
<g>
	<path fill="#609E05" d="M484.306,80.461c0,0-12.079-6.205-17.233,12.265C467.072,92.726,486.316,93.385,484.306,80.461z"/>
	<path fill="#4F8101" d="M484.311,80.52c-0.001-0.021-0.001-0.039-0.005-0.059c0,0-12.063-6.197-17.227,12.234
		C471.362,89.176,481.227,82.567,484.311,80.52z"/>
	<path fill="#88AB35" d="M486.523,80.581c0,0,0.027-0.067,0.063-0.177c0.164-0.49,0.528-1.814-0.421-1.544
		c-1.161,0.327-19.203,14.103-19.203,14.103"/>
</g>
<g>
	<path fill="#609E05" d="M198.944,123.225c0,0-8.198-4.21-11.695,8.324C187.249,131.549,200.309,131.996,198.944,123.225z"/>
	<path fill="#4F8101" d="M198.947,123.266c-0.001-0.014-0.001-0.027-0.003-0.041c0,0-8.188-4.205-11.691,8.304
		C190.16,129.141,196.854,124.655,198.947,123.266z"/>
	<path fill="#88AB35" d="M200.449,123.307c0,0,0.019-0.045,0.043-0.119c0.111-0.332,0.358-1.232-0.285-1.049
		c-0.788,0.223-13.032,9.572-13.032,9.572"/>
</g>
<g>
	<path fill="#609E05" d="M291.553,103.445c0,0,0.857,6.837,10.071,3.711C301.624,107.156,296.393,98.904,291.553,103.445z"/>
	<path fill="#4F8101" d="M291.576,103.426c-0.009,0.007-0.017,0.012-0.023,0.02c0,0,0.855,6.828,10.057,3.717
		C298.909,106.375,293.316,104.132,291.576,103.426z"/>
	<path fill="#88AB35" d="M290.969,102.48c0,0-0.036,0.008-0.093,0.024c-0.252,0.071-0.911,0.298-0.526,0.618
		c0.47,0.393,11.405,4.012,11.405,4.012"/>
</g>
<g>
	<path fill="#609E05" d="M355.553,129.445c0,0,0.857,6.837,10.071,3.711C365.624,133.156,360.393,124.904,355.553,129.445z"/>
	<path fill="#4F8101" d="M355.576,129.426c-0.009,0.007-0.017,0.012-0.023,0.02c0,0,0.855,6.828,10.057,3.717
		C362.909,132.375,357.316,130.132,355.576,129.426z"/>
	<path fill="#88AB35" d="M354.969,128.48c0,0-0.036,0.008-0.093,0.024c-0.252,0.071-0.911,0.298-0.526,0.618
		c0.47,0.393,11.405,4.012,11.405,4.012"/>
</g>
<g>
</g>
<g>
	<text transform="matrix(1 0 0 1 249 176.583)"><tspan x="0" y="0" font-family="'SaiEmbed'" font-size="45">No orders </tspan><tspan x="0" y="35" font-family="'SaiEmbed'" font-size="45">  placed</tspan></text>
</g>
</svg>
