<?xml version="1.0" encoding="iso-8859-1"?>
<!-- Generator: Adobe Illustrator 19.0.0, SVG Export Plug-In . SVG Version: 6.00 Build 0)  -->
<svg version="1.1" id="Capa_1" xmlns="http://www.w3.org/2000/svg" xmlns:xlink="http://www.w3.org/1999/xlink" x="0px" y="0px"
	 viewBox="0 0 499.336 499.336" style="enable-background:new 0 0 499.336 499.336;" xml:space="preserve">
<path style="fill:#92E0C0;" d="M248,273.668L248,273.668c-46.304-51.448-110.24-83.64-179.144-90.208L8,177.668l0,0
	c0-39.768,32.232-72,72-72h8v-7.32c0-48.976,39.704-88.68,88.68-88.68l0,0c10.024,0,19.864,2.728,28.464,7.888l0,0
	C221.8,27.548,232,45.556,232,64.988v56.68c0,8.84,7.16,16,16,16l0,0c8.84,0,16-7.16,16-16V66.236
	c0-31.24,25.328-56.568,56.568-56.568l0,0c15,0,29.392,5.96,40,16.568L384,49.668l0,0c50.784,0,94.12,36.712,102.464,86.8l1.536,9.2
	l0,0c-61.84,0-121.528,22.696-167.752,63.776L248,273.668z"/>
<g>
	<path style="fill:#48C397;" d="M128,65.668L128,65.668c40.84,20.424,71.44,56.8,84.56,100.536l3.44,11.464l-15.448,16
		c-38.864-23.192-82.672-37.68-128.664-42.056l-20.424-1.944c20.536-20,29.36-19.048,60.536-20
		C106.664,105.668,112,79.004,128,65.668z"/>
	<path style="fill:#48C397;" d="M368,73.668L368,73.668c-41.376,20.688-74.272,55.112-93.064,97.384L272,177.668l26.992,7.864
		c41.512-36.912,92.544-60.616,146.84-68.736C436.008,98.9,414.424,83.572,368,73.668z"/>
</g>
<path style="fill:#92E0C0;" d="M384,225.668l-10.536-5.264c-3.592-1.8-7.56-2.736-11.576-2.736l0,0
	c-14.296,0-25.888,11.592-25.888,25.888v6.112l0,0c-17.672,0-32,14.328-32,32l0,0h23.072c25.688,0,49.8,12.392,64.752,33.288l0,0
	l3.512-4.832c13.168-18.12,33.36-29.864,55.624-32.336l37.04-4.12l-4.112-10.288c-7.184-17.944-24.56-29.712-43.888-29.712l0,0
	l-5.192-5.192c-6.92-6.92-16.304-10.808-26.096-10.808l0,0c-5.728,0-11.384,1.336-16.504,3.896L384,225.668z"/>
<g>
	<circle style="fill:#EABD8C;" cx="152" cy="297.668" r="32"/>
	<circle style="fill:#EABD8C;" cx="128" cy="361.668" r="32"/>
</g>
<path d="M52.224,141.692l-1.512,15.928l20.424,1.944c44.752,4.264,86.912,18.048,125.32,40.968l8.2-13.744
	c-40.464-24.144-84.872-38.664-132.008-43.152L52.224,141.692z"/>
<path d="M304.304,191.516c27.648-24.576,59.368-43.088,94.136-54.96l9.544-3.056l-4.872-15.24l-9.696,3.104
	c-36.936,12.616-70.496,32.192-99.736,58.192L304.304,191.516z"/>
<path d="M438.68,126.092l-2.84-15.744c-5.024,0.904-10.016,1.944-14.96,3.112l3.672,15.568
	C429.224,127.924,433.936,126.948,438.68,126.092z"/>
<path d="M491.312,260.412c-8.016-20.04-26.584-33.344-47.888-34.64l-2.952-2.952c-8.48-8.48-19.76-13.152-31.76-13.152
	c-6.936,0-13.872,1.64-20.08,4.736l-4.632,2.32l-6.952-3.48c-4.68-2.336-9.92-3.576-15.16-3.576c-18.32,0-33.296,14.616-33.872,32.8
	c-18.24,3.704-32.016,19.88-32.016,39.2v8h31.072c22.32,0,43.36,10.56,56.856,28.24c-0.384,26.48-10.816,51.336-29.584,70.104
	c-19.128,19.128-44.552,29.656-71.6,29.656H256V277.26l69.56-61.832c44.808-39.824,102.496-61.76,162.44-61.76h9.448l-3.088-18.512
	c-8.848-53.064-53.56-91.872-107-93.44L366.224,20.58C354.032,8.388,337.816,1.668,320.568,1.668
	c-35.6,0-64.568,28.968-64.568,64.568v55.432c0,4.408-3.584,8-8,8s-8-3.592-8-8V64.996c0-22.112-11.784-42.92-30.752-54.304
	c-9.84-5.904-21.096-9.024-32.568-9.024c-53.088,0-96.312,43-96.68,96c-44.112,0-80,35.888-80,80v7.272l68.104,6.488
	c66.088,6.296,126.992,36.624,171.896,85.416v128.144c-13.608-31.168-32.016-60.008-54.624-85.368
	c4.16-6.312,6.624-13.84,6.624-21.952c0-22.056-17.944-40-40-40s-40,17.944-40,40c0,9.376,3.376,17.896,8.808,24.728
	C102.184,325.804,88,342.076,88,361.668c0,22.056,17.944,40,40,40c13.72,0,25.832-6.952,33.048-17.512
	c34.568,18.248,62.664,47.592,78.952,83.408v30.104h16v-64h26.744c31.32,0,60.768-12.192,82.912-34.344
	c21.92-21.92,34.048-51,34.296-81.96l1.84-2.544c11.824-16.264,30.064-26.864,50.04-29.088l47.504-5.28L491.312,260.412z
	 M69.616,175.5l-53.208-5.064C20.016,138.54,47.16,113.668,80,113.668h16V98.34c0-44.48,36.192-80.672,80.68-80.672
	c8.568,0,16.984,2.336,24.344,6.744C215.192,32.916,224,48.468,224,64.996v56.672c0,13.232,10.768,24,24,24s24-10.768,24-24V66.236
	c0-26.776,21.792-48.568,48.568-48.568c12.968,0,25.168,5.048,34.344,14.224l25.776,25.776H384
	c47.064,0,86.832,33.696,94.576,80.112l0.008,0.056c-60.472,2.176-118.264,25.288-163.648,65.632L256,255.852v-46.184h-16v44.224
	C193.8,209.276,134.024,181.636,69.616,175.5z M152,273.668c13.232,0,24,10.768,24,24c0,3.456-0.768,6.728-2.088,9.696
	c-5.36-5.416-10.888-10.68-16.648-15.72l-10.528,12.048c5.584,4.888,10.928,10,16.12,15.264c-3.272,1.672-6.928,2.712-10.856,2.712
	c-13.232,0-24-10.768-24-24S138.768,273.668,152,273.668z M128,385.668c-13.232,0-24-10.768-24-24s10.768-24,24-24s24,10.768,24,24
	c0,0.144-0.04,0.272-0.04,0.416c-2.408-0.992-4.816-1.968-7.272-2.856l-13.952-5.072l-5.472,15.032l13.952,5.072
	c2.368,0.864,4.616,1.976,6.936,2.936C141.752,382.332,135.288,385.668,128,385.668z M167.24,369.188
	c0.464-2.44,0.76-4.944,0.76-7.52c0-9.376-3.376-17.896-8.808-24.728c5.424-0.992,10.472-3.032,14.896-5.976
	c23.104,26.072,41.632,55.96,54.696,88.344C211.984,398.628,191,381.492,167.24,369.188z M450.072,269.836
	c-18.2,2.032-35.168,9.808-48.648,21.832c2.688-13.16,9.144-25.248,18.848-34.96l1.376-1.368l-11.296-11.328l-1.384,1.376
	c-8.096,8.096-14.352,17.536-18.584,27.808c-5.68-8.768-13.632-16.088-23.432-20.992l-3.376-1.688l-7.16,14.312l3.376,1.688
	c11.144,5.568,19.12,15.344,22.456,26.872c-15.44-12.536-34.872-19.72-55.176-19.72h-13.704c3.304-9.312,12.2-16,22.632-16h8
	v-14.112c0-9.864,8.024-17.888,17.888-17.888c2.76,0,5.528,0.656,8,1.888L384,234.612l11.792-5.896
	c10.896-5.464,24.752-3.192,33.368,5.416l7.528,7.536H440c16.152,0,30.456,9.688,36.456,24.68l0.208,0.528L450.072,269.836z"/>
<path d="M192.752,109.54l-9.432-11.688L170.864,107.9l9.248,11.456c11.12,14.856,19.456,31.392,24.784,49.144l3.44,11.464
	l15.328-4.592l-3.44-11.472C214.36,144.34,205.168,126.132,192.752,109.54z"/>
<path d="M171.432,85.98c-11.936-10.976-25.352-20.208-39.848-27.464l-7.16,14.312c13.168,6.584,25.344,14.976,36.176,24.936
	L171.432,85.98z"/>
<path d="M282.248,174.308c17.984-40.48,49.712-73.672,89.328-93.48l-7.16-14.312c-42.928,21.464-77.304,57.44-96.8,101.296
	l-2.936,6.616l14.624,6.496L282.248,174.308z"/>
<g>
</g>
<g>
</g>
<g>
</g>
<g>
</g>
<g>
</g>
<g>
</g>
<g>
</g>
<g>
</g>
<g>
</g>
<g>
</g>
<g>
</g>
<g>
</g>
<g>
</g>
<g>
</g>
<g>
</g>
</svg>
