<?xml version="1.0" encoding="UTF-8"?>
<svg xmlns="http://www.w3.org/2000/svg" xmlns:xlink="http://www.w3.org/1999/xlink" width="512" height="512" viewBox="0 0 58 37" version="1.1"><!-- Generator: Sketch 51.3 (57544) - http://www.bohemiancoding.com/sketch --><title>014 - Moving House</title><desc>Created with Sketch.</desc><defs/><g id="Page-1" stroke="none" stroke-width="1" fill="none" fill-rule="evenodd"><g id="014---Moving-House" fill-rule="nonzero"><path d="M57.75,18.72 L49,11 L41,11 L41,10 L39.174,1.7831 C39.0723362,1.32554561 38.6665126,0.999997107 38.1978,1 L32,1 L31.7071,0.7071 C31.3165773,0.31658475 30.6834227,0.31658475 30.2929,0.7071 L30,1 L3.7208,1 C3.29035608,0.999996794 2.90820637,1.27544106 2.7721,1.6838 L0.2194,9.3419 C0.168583185,9.49436532 0.194150691,9.6619638 0.288115932,9.79234231 C0.382081173,9.92272081 0.532989014,9.99998513 0.6937,10 L1,10 L1,24 C0.44771525,24 0,24.4477153 0,25 L0,31 C0,31.5522847 0.44771525,32 1,32 L3,32 C3,34.7614237 5.23857625,37 8,37 C10.7614237,37 13,34.7614237 13,32 L43,32 C43,34.7614237 45.2385763,37 48,37 C50.7614237,37 53,34.7614237 53,32 L56,32 C57.1045695,32 58,31.1045695 58,30 C58,28.8954305 57.1045695,28 56,28 C57.1045695,28 58,27.1045695 58,26 L58,19.38 C58.0010963,19.136664 57.9120356,18.9015436 57.75,18.72 Z" id="Shape" fill="#D25627"/><path d="M50,28 L56,28 C57.1045695,28 58,28.8954305 58,30 C58,31.1045695 57.1045695,32 56,32 L1,32 C0.44771525,32 0,31.5522847 0,31 L0,28 L50,28 Z" id="Shape" fill="#35495E"/><path d="M58,19.38 L58,26 C57.9967598,27.1032246 57.1032246,27.9967598 56,28 L41,28 L41,20 L47,20 C48.1032246,19.9967598 48.9967598,19.1032246 49,18 L49,11 L57.75,18.72 C57.9120356,18.9015436 58.0010963,19.136664 58,19.38 Z" id="Shape" fill="#3F5C6C"/><path d="M55,24 L58,24 L58,26 C58,27.1045695 57.1045695,28 56,28 L54,28 L54,25 C54,24.4477153 54.4477153,24 55,24 Z" id="Shape" fill="#F0C419"/><path d="M49,11 L49,18 C48.9967598,19.1032246 48.1032246,19.9967598 47,20 L41,20 L41,11 L49,11 Z" id="Shape" fill="#67B9CC"/><path d="M1,24 L41,24 L41,28 L0,28 L0,25 C-1.11022302e-16,24.4477153 0.44771525,24 1,24 Z" id="Shape" fill="#804537"/><path d="M1,24 L41,24 L41,26 L0,26 L0,25 C-1.11022302e-16,24.4477153 0.44771525,24 1,24 Z" id="Shape" fill="#CC6F56"/><rect id="Rectangle-path" fill="#F29C1F" x="1" y="10" width="20" height="14"/><path d="M41,24 L21,24 L21,10 L30.2929,0.7071 C30.6834227,0.31658475 31.3165773,0.31658475 31.7071,0.7071 L41,10 L41,24 Z" id="Shape" fill="#F0C419"/><path d="M30,1 L21,10 L0.6937,10 C0.532989014,9.99998513 0.382081173,9.92272081 0.288115932,9.79234231 C0.194150691,9.6619638 0.168583185,9.49436532 0.2194,9.3419 L2.7721,1.6838 C2.90820637,1.27544106 3.29035608,0.999996794 3.7208,1 L30,1 Z" id="Shape" fill="#D25627"/><path d="M7,1 L7,3 C7,3.55228475 6.55228475,4 6,4 C5.44771525,4 5,3.55228475 5,3 L5,1 L7,1 Z" id="Shape" fill="#C03A2B"/><path d="M11,1 L11,3 C11,3.55228475 10.5522847,4 10,4 C9.44771525,4 9,3.55228475 9,3 L9,1 L11,1 Z" id="Shape" fill="#C03A2B"/><path d="M15,1 L15,3 C15,3.55228475 14.5522847,4 14,4 C13.4477153,4 13,3.55228475 13,3 L13,1 L15,1 Z" id="Shape" fill="#C03A2B"/><path d="M19,1 L19,3 C19,3.55228475 18.5522847,4 18,4 C17.4477153,4 17,3.55228475 17,3 L17,1 L19,1 Z" id="Shape" fill="#C03A2B"/><path d="M23,1 L23,3 C23,3.55228475 22.5522847,4 22,4 C21.4477153,4 21,3.55228475 21,3 L21,1 L23,1 Z" id="Shape" fill="#C03A2B"/><path d="M16,8 C15.4477153,8 15,7.55228475 15,7 L15,6 C15,5.44771525 15.4477153,5 16,5 C16.5522847,5 17,5.44771525 17,6 L17,7 C17,7.55228475 16.5522847,8 16,8 Z" id="Shape" fill="#C03A2B"/><path d="M12,8 C11.4477153,8 11,7.55228475 11,7 L11,6 C11,5.44771525 11.4477153,5 12,5 C12.5522847,5 13,5.44771525 13,6 L13,7 C13,7.55228475 12.5522847,8 12,8 Z" id="Shape" fill="#C03A2B"/><path d="M8,8 C7.44771525,8 7,7.55228475 7,7 L7,6 C7,5.44771525 7.44771525,5 8,5 C8.55228475,5 9,5.44771525 9,6 L9,7 C9,7.55228475 8.55228475,8 8,8 Z" id="Shape" fill="#C03A2B"/><path d="M17,15 L17,19 C16.9984072,19.5516236 16.5516236,19.9984072 16,20 L11,20 L11,14 L16,14 C16.5516236,14.0015928 16.9984072,14.4483764 17,15 Z" id="Shape" fill="#35495E"/><path d="M11,14 L11,20 L6,20 C5.44837635,19.9984072 5.00159279,19.5516236 5,19 L5,15 C5.00159279,14.4483764 5.44837635,14.0015928 6,14 L11,14 Z" id="Shape" fill="#3F5C6C"/><path d="M32,1 L38.1978,1 C38.6665126,0.999997107 39.0723362,1.32554561 39.174,1.7831 L41,10 L32,1 Z" id="Shape" fill="#D25627"/><path d="M30,14 L32,14 C34.209139,14 36,15.790861 36,18 L36,24 L26,24 L26,18 C26,15.790861 27.790861,14 30,14 Z" id="Shape" fill="#D25627"/><path d="M34,8 C34.0010634,8.795975 33.6853344,9.55965477 33.1224946,10.1224946 C32.5596548,10.6853344 31.795975,11.0010634 31,11 C29.3456511,10.9939672 28.0060328,9.65434893 28,8 C27.9990217,6.59614043 28.9723552,5.37959215 30.3422182,5.07251252 C31.7120813,4.76543289 33.1115985,5.45006368 33.71,6.72 C33.9033205,7.11886116 34.0025333,7.55676572 34,8 Z" id="Shape" fill="#3F5C6C"/><path d="M48,29 C47.4477153,29 47,28.5522847 47,28 L47,25 C47,24.4477153 47.4477153,24 48,24 C48.5522847,24 49,24.4477153 49,25 L49,28 C49,28.5522847 48.5522847,29 48,29 Z" id="Shape" fill="#35495E"/><path d="M8,37 L3,37 C2.44771525,37 2,36.5522847 2,36 C2,35.4477153 2.44771525,35 3,35 L8,35 C8.55228475,35 9,35.4477153 9,36 C9,36.5522847 8.55228475,37 8,37 Z" id="Shape" fill="#2C3E50"/><path d="M48,37 L43,37 C42.4477153,37 42,36.5522847 42,36 C42,35.4477153 42.4477153,35 43,35 L48,35 C48.5522847,35 49,35.4477153 49,36 C49,36.5522847 48.5522847,37 48,37 Z" id="Shape" fill="#2C3E50"/><path d="M37,37 L17,37 C16.4477153,37 16,36.5522847 16,36 C16,35.4477153 16.4477153,35 17,35 L37,35 C37.5522847,35 38,35.4477153 38,36 C38,36.5522847 37.5522847,37 37,37 Z" id="Shape" fill="#2C3E50"/><circle id="Oval" fill="#2C3E50" cx="48" cy="32" r="5"/><circle id="Oval" fill="#35495E" cx="48" cy="32" r="4"/><circle id="Oval" fill="#3F5C6C" cx="48" cy="32" r="2"/><circle id="Oval" fill="#547580" cx="48" cy="32" r="1"/><circle id="Oval" fill="#2C3E50" cx="8" cy="32" r="5"/><circle id="Oval" fill="#35495E" cx="8" cy="32" r="4"/><circle id="Oval" fill="#3F5C6C" cx="8" cy="32" r="2"/><circle id="Oval" fill="#547580" cx="8" cy="32" r="1"/><path d="M34,8 C34.0010634,8.795975 33.6853344,9.55965477 33.1224946,10.1224946 C32.5596548,10.6853344 31.795975,11.0010634 31,11 C30.2606526,11.0016424 29.5473605,10.727025 29,10.23 C29.21,8.5 30.14,6.19 33.71,6.72 C33.9033205,7.11886116 34.0025333,7.55676572 34,8 Z" id="Shape" fill="#35495E"/><path d="M49,15.12 L49,18 C48.9967598,19.1032246 48.1032246,19.9967598 47,20 L41.21,20 C41.74,18.09 43.5,14.18 49,15.12 Z" id="Shape" fill="#2FA8CC"/></g></g></svg>
