<?xml version="1.0" encoding="iso-8859-1"?>
<!-- Generator: Adobe Illustrator 21.0.0, SVG Export Plug-In . SVG Version: 6.00 Build 0)  -->
<svg xmlns="http://www.w3.org/2000/svg" xmlns:xlink="http://www.w3.org/1999/xlink" version="1.1" id="Capa_1" x="0px" y="0px" viewBox="0 0 509.01 509.01" style="enable-background:new 0 0 509.01 509.01;" xml:space="preserve" width="512" height="512">
<g>
	<path style="fill:#45BF7F;" d="M422.654,167.241c-9.52-8.315-14.978-20.335-14.978-32.976V93.597c0-4.143-3.357-7.5-7.5-7.5   h-46.598c-4.143,0-7.5,3.357-7.5,7.5v40.669c0,12.641-5.459,24.659-14.978,32.976c-15.998,13.977-25.173,34.176-25.173,55.418   v9.186c0,4.143,3.357,7.5,7.5,7.5h126.899c4.142,0,7.5-3.357,7.5-7.5v-9.186C447.826,201.417,438.651,181.218,422.654,167.241z"/>
	<path style="fill:#00B76C;" d="M422.654,167.241c-9.52-8.315-14.978-20.335-14.978-32.976V93.597c0-4.143-3.357-7.5-7.5-7.5   h-33.015c4.143,0,7.5,3.357,7.5,7.5v40.669c0,12.641,5.459,24.66,14.978,32.976c15.997,13.977,25.172,34.176,25.172,55.418v9.186   c0,4.143-3.357,7.5-7.5,7.5h33.015c4.142,0,7.5-3.357,7.5-7.5v-9.186C447.826,201.417,438.651,181.218,422.654,167.241z"/>
	<path style="fill:#A58260;" d="M472.103,289.307c-1.425-1.679-3.516-2.646-5.718-2.646H42.634c-2.202,0-4.293,0.968-5.718,2.646   s-2.04,3.899-1.683,6.072l25.904,157.348c3.316,20.136,20.534,34.75,40.94,34.75h304.863c20.406,0,37.624-14.614,40.94-34.75   l25.904-157.348C474.143,293.207,473.528,290.986,472.103,289.307z"/>
	<path style="fill:#8C6B50;" d="M472.103,289.307c-1.425-1.679-3.516-2.646-5.718-2.646h-35.519c2.202,0,4.293,0.968,5.718,2.646   s2.04,3.899,1.683,6.072l-25.904,157.348c-3.316,20.136-20.534,34.75-40.94,34.75h35.519c20.406,0,37.624-14.614,40.94-34.75   l25.904-157.348C474.143,293.207,473.528,290.986,472.103,289.307z"/>
	<path style="fill:#A58260;" d="M276.037,21.532h-43.055c-10.383,0-18.83,8.447-18.83,18.831v191.481c0,4.143,3.357,7.5,7.5,7.5   h65.715c4.143,0,7.5-3.357,7.5-7.5V40.363C294.867,29.979,286.42,21.532,276.037,21.532z"/>
	<path style="fill:#8C6B50;" d="M276.037,21.532h-36.048c10.383,0,18.83,8.447,18.83,18.831v191.481c0,4.143-3.357,7.5-7.5,7.5   h36.048c4.143,0,7.5-3.357,7.5-7.5V40.363C294.867,29.979,286.42,21.532,276.037,21.532z"/>
	<path style="fill:#FFBB64;" d="M214.307,227.207l-89.969-114.342C98.997,80.658,54.854,69.109,16.988,84.788   c-8.021,3.32-13.881,10.041-16.077,18.439c-2.196,8.398-0.378,17.129,4.99,23.951l86.005,109.304   c1.423,1.808,3.595,2.862,5.895,2.862h110.612c2.872,0,5.492-1.641,6.747-4.224C216.414,232.537,216.083,229.464,214.307,227.207z"/>
	<path style="fill:#FFAD47;" d="M214.307,227.207l-89.969-114.342C98.997,80.658,54.854,69.109,16.988,84.788   c-0.951,0.394-1.87,0.839-2.758,1.326c27.464,0.131,54.292,12.529,71.97,34.997l89.969,114.342c0.9,1.144,1.425,2.498,1.564,3.892   h30.68c2.872,0,5.492-1.641,6.747-4.224C216.414,232.537,216.083,229.464,214.307,227.207z"/>
	<path style="fill:#FFDF65;" d="M501.51,224.345h-494c-4.143,0-7.5,3.357-7.5,7.5v62.317c0,4.142,3.357,7.5,7.5,7.5h494   c4.143,0,7.5-3.358,7.5-7.5v-62.317C509.01,227.702,505.652,224.345,501.51,224.345z"/>
	<path style="fill:#FFCD2C;" d="M501.51,224.345h-27v77.317h27c4.143,0,7.5-3.358,7.5-7.5v-62.317   C509.01,227.702,505.652,224.345,501.51,224.345z"/>
	<path style="fill:#FF3D43;" d="M215.005,228.54c-1.26-2.568-3.872-4.195-6.732-4.195H42.634c-2.868,0-5.484,1.636-6.741,4.214   c-1.257,2.578-0.934,5.646,0.833,7.906l83.277,106.505c1.422,1.818,3.601,2.88,5.908,2.88c0.007,0,0.014,0,0.021,0   c2.314-0.006,4.496-1.081,5.912-2.912l82.361-106.505C215.955,234.17,216.265,231.108,215.005,228.54z"/>
	<path style="fill:#D72E2E;" d="M215.005,228.54c-1.26-2.568-3.872-4.195-6.732-4.195h-30.2l-74.995,96.979l16.925,21.646   c1.422,1.818,3.601,2.88,5.908,2.88c0.007,0,0.014,0,0.021,0c2.314-0.006,4.496-1.081,5.912-2.912l82.361-106.505   C215.955,234.17,216.265,231.108,215.005,228.54z"/>
	<path style="fill:#F78819;" d="M113.974,162.163c0.102,0.004,0.203,0.006,0.305,0.006c4.004,0,7.327-3.163,7.489-7.2l1.727-43.13   c-4.331-5.342-9.182-10.099-14.442-14.237l-2.273,56.767C106.614,158.508,109.836,161.997,113.974,162.163z"/>
	<path style="fill:#F78819;" d="M145.048,139.185l-2.431,60.729c-0.166,4.139,3.056,7.628,7.194,7.794   c0.103,0.004,0.203,0.006,0.305,0.006c4.004,0,7.327-3.163,7.489-7.2l1.728-43.173L145.048,139.185z"/>
	<path style="fill:#FFDF65;" d="M394.068,49.858h-34.384c-11.438,0-20.743,9.306-20.743,20.743v22.995c0,4.143,3.357,7.5,7.5,7.5   h60.87c4.143,0,7.5-3.357,7.5-7.5V70.601C414.811,59.164,405.506,49.858,394.068,49.858z"/>
	<path style="fill:#FFCD2C;" d="M394.068,49.858h-33.015c11.438,0,20.743,9.306,20.743,20.743v22.995c0,4.143-3.358,7.5-7.5,7.5   h33.015c4.143,0,7.5-3.357,7.5-7.5V70.601C414.811,59.164,405.506,49.858,394.068,49.858z"/>
</g>















</svg>
