<?xml version="1.0" encoding="iso-8859-1"?>
<!-- Generator: Adobe Illustrator 19.0.0, SVG Export Plug-In . SVG Version: 6.00 Build 0)  -->
<svg version="1.1" id="Capa_1" xmlns="http://www.w3.org/2000/svg" xmlns:xlink="http://www.w3.org/1999/xlink" x="0px" y="0px"
	 viewBox="0 0 512 512" style="enable-background:new 0 0 512 512;" xml:space="preserve">
<circle style="fill:#1AB0AE;" cx="256" cy="256.317" r="255.681"/>
<path style="fill:#F2F2F7;" d="M455.782,415.864c-0.261,0.334-0.522,0.668-0.793,1.002C408.121,474.89,336.394,512,255.996,512
	c-76.443,0-145.06-33.552-191.917-86.744c9.789-106.833,7.952-214.469-5.479-321.01c-0.376-3.006-0.762-6.011-1.158-9.017
	c-0.647-4.884-1.315-9.768-2.014-14.642c-1.816-12.805,6.961-24.702,19.734-26.726c10.436-1.649,20.861-3.308,31.297-4.957
	c7.086-1.127,14.182-2.244,21.268-3.371c60.643-9.601,121.287-19.202,181.94-28.814c8.182-1.294,16.374-2.599,24.556-3.893
	c26.393-4.174,52.775-8.349,79.167-12.534c13.055-2.066,25.255,6.971,27.154,20.058c3.308,22.803,6.199,45.647,8.662,68.522
	c0.428,3.955,0.845,7.91,1.242,11.866C461.073,205.475,462.857,310.889,455.782,415.864z"/>
<g>
	<path style="fill:#374266;" d="M199.179,197.229c-5.227,0-9.854-3.753-10.781-9.079c-1.039-5.962,2.951-11.637,8.913-12.675
		l206.621-36.002c5.967-1.035,11.637,2.952,12.676,8.914c1.039,5.962-2.951,11.637-8.913,12.676l-206.621,36.002
		C200.437,197.175,199.805,197.229,199.179,197.229z"/>
	<path style="fill:#374266;" d="M211.703,291.147c-5.535,0-10.289-4.18-10.884-9.807c-0.637-6.018,3.727-11.413,9.745-12.048
		l192.533-20.349c6.036-0.64,11.413,3.728,12.048,9.745c0.637,6.018-3.727,11.413-9.745,12.048l-192.533,20.349
		C212.476,291.126,212.087,291.147,211.703,291.147z"/>
	<path style="fill:#374266;" d="M221.098,394.457c-5.797,0-10.636-4.547-10.935-10.402c-0.308-6.044,4.342-11.193,10.387-11.5
		l184.707-9.392c6.053-0.306,11.194,4.342,11.5,10.387c0.308,6.044-4.343,11.193-10.387,11.5l-184.707,9.392
		C221.474,394.452,221.286,394.457,221.098,394.457z"/>
</g>
<g>
	<circle style="fill:#65A3E6;" cx="131.885" cy="197.229" r="15.653"/>
	<circle style="fill:#65A3E6;" cx="139.712" cy="291.142" r="15.653"/>
	<circle style="fill:#65A3E6;" cx="144.982" cy="392.778" r="15.653"/>
</g>
<path style="fill:#FF526C;" d="M396.181,218.776c116.461-73.944,146.039-190.404,77.64-208.89
	c-66.028-17.845-77.64,61.003-77.64,61.003s-9.243-83.186-77.64-61.003C253.479,30.988,279.72,144.833,396.181,218.776z"/>
<g>
</g>
<g>
</g>
<g>
</g>
<g>
</g>
<g>
</g>
<g>
</g>
<g>
</g>
<g>
</g>
<g>
</g>
<g>
</g>
<g>
</g>
<g>
</g>
<g>
</g>
<g>
</g>
<g>
</g>
</svg>
